<svg width="612" height="455" viewBox="0 0 612 455" fill="none" xmlns="http://www.w3.org/2000/svg">
<g id="undraw_timeline_9u4u (1) 1">
<path id="Vector" d="M303.525 118.747C331.736 114.089 364.521 114.899 399.873 118.747C392.701 80.4749 392.373 42.9887 399.873 6.41074H303.525C296.408 43.5569 296.408 81.6011 303.525 118.747Z" fill="#F2F2F2"/>
<path id="Vector_2" d="M332.287 10.3469L365.802 10.3469V-3.8147e-06L332.287 -3.8147e-06V10.3469Z" fill="#3F3D56"/>
<path id="Vector_3" opacity="0.1" d="M228.525 340.55C256.737 335.892 289.521 336.701 324.873 340.55C317.702 302.278 317.374 264.791 324.873 228.213H228.525C221.409 265.359 221.409 303.404 228.525 340.55Z" fill="black"/>
<path id="Vector_4" d="M224.194 335.309C252.405 330.651 285.189 331.461 320.542 335.309C313.37 297.037 313.042 259.551 320.542 222.973H224.194C217.077 260.119 217.077 298.163 224.194 335.309Z" fill="#F2F2F2"/>
<path id="Vector_5" d="M252.943 226.909H286.458V216.562H252.943V226.909Z" fill="#3F3D56"/>
<path id="Vector_6" d="M141.397 151.936C141.397 151.936 178.767 52.4796 262.021 51.6004" stroke="#3F3D56" stroke-width="2" stroke-miterlimit="10"/>
<path id="Vector_7" d="M269.49 51.7867C265.945 52.9513 261.539 54.9368 258.779 57.097L261.044 51.6062L259.051 46.0223C261.7 48.299 266.006 50.4941 269.49 51.7867Z" fill="#3F3D56"/>
<path id="Vector_8" d="M144.491 189.784C144.491 189.784 141.113 269.81 189.701 280.705" stroke="#3F3D56" stroke-width="2" stroke-miterlimit="10"/>
<path id="Vector_9" d="M197.09 281.782C193.408 282.457 188.748 283.86 185.698 285.636L188.748 280.495L187.597 274.707C189.887 277.304 193.829 280.035 197.09 281.782Z" fill="#3F3D56"/>
<path id="Vector_10" d="M154.392 163.582C154.392 163.582 417.15 122.369 462.243 173.352" stroke="#3F3D56" stroke-width="2" stroke-miterlimit="10"/>
<path id="Vector_11" d="M466.271 179.303C463.239 177.224 458.975 174.959 455.522 174.063L461.599 172.671L465.312 167.937C464.86 171.291 465.417 175.868 466.271 179.303Z" fill="#3F3D56"/>
<g id="Group" opacity="0.1">
<path id="Vector_12" opacity="0.1" d="M306 455C474.999 455 612 446.397 612 435.785C612 425.173 474.999 416.57 306 416.57C137.001 416.57 0 425.173 0 435.785C0 446.397 137.001 455 306 455Z" fill="#004AB8"/>
</g>
<path id="Vector_13" opacity="0.1" d="M574.723 292.565C549.73 305.724 524.841 325.818 500.008 349.802C479.885 315.868 454.996 286.603 424.632 262.689L499.346 205.453C529.788 230.031 555.315 259.533 574.723 292.565Z" fill="black"/>
<path id="Vector_14" d="M575.961 287.907C550.967 301.066 526.079 321.16 501.246 345.144C481.122 311.209 456.234 281.945 425.869 258.031L500.584 200.794C531.026 225.373 556.553 254.875 575.961 287.907Z" fill="#F2F2F2"/>
<path id="Vector_15" d="M473.999 212.917L448.009 232.827L454.951 240.851L480.942 220.941L473.999 212.917Z" fill="#3F3D56"/>
<path id="Vector_16" d="M510.662 236.323L464.593 271.614L469.672 277.484L515.741 242.193L510.662 236.323Z" fill="#004AB8"/>
<path id="Vector_17" d="M580.843 428.385C580.482 427.848 580.028 427.371 579.5 426.976C576.796 424.577 575.54 421.042 574.872 417.589C574.203 414.137 574.011 410.602 572.941 407.213C572.358 405.479 571.629 403.791 570.763 402.165C570.144 400.925 569.364 398.479 568.232 397.612C568.008 397.432 567.74 397.308 567.452 397.251C566.919 396.182 566.156 395.228 565.212 394.45C563.442 392.942 561.283 391.743 560.101 389.792C559.776 389.113 559.376 388.469 558.906 387.871C558.108 387.044 556.846 386.706 556.109 385.833C555.15 384.703 555.367 383.09 555.49 381.646C555.614 380.202 555.49 378.484 554.166 377.733C553.374 377.273 552.353 377.314 551.53 376.912C550.293 376.33 549.804 374.857 549.828 373.547C549.853 372.237 550.286 370.962 550.398 369.657C550.744 365.488 547.823 361.343 548.95 357.302C549.377 355.77 550.354 354.437 551.078 353.016C551.329 352.541 551.536 352.046 551.697 351.537C553.627 352.258 555.657 352.717 557.724 352.9C554.315 345.709 555.181 337.342 553.591 329.609L553.795 329.341C555.402 327.35 556.314 324.94 556.406 322.441C556.406 319.53 554.977 316.869 554.333 314.057C553.783 311.658 553.807 309.16 553.096 306.802C552.602 305.34 551.947 303.931 551.14 302.598C550.369 301.255 549.558 299.931 548.708 298.627C547.916 296.158 547.122 293.689 546.326 291.22C545.212 287.727 544.067 284.233 541.901 281.24C541.109 280.14 540.868 277.921 539.649 277.252C538.659 276.772 537.536 276.589 536.431 276.728C534.711 275.819 533.201 274.509 532.984 272.716C532.963 272.324 533.005 271.931 533.108 271.551H533.319C536.041 271.313 537.421 269.053 538.838 267.08C541.128 263.871 540.255 259.539 538.838 255.894C538.485 254.744 537.849 253.689 536.982 252.814C534.996 251.067 531.852 251.457 529.29 250.613C528.461 250.269 527.612 249.967 526.747 249.711C525.045 249.332 523.263 249.856 521.704 250.596C520.144 251.335 518.69 252.29 517.056 252.878C515.423 253.466 513.405 253.92 513.003 255.498C512.89 256.03 512.938 256.58 513.139 257.088C513.517 258.098 514.178 258.993 515.051 259.679C514.356 261.029 513.98 262.505 513.949 264.004C513.918 265.504 514.233 266.993 514.872 268.367C515.512 269.741 516.46 270.969 517.652 271.965C518.844 272.961 520.252 273.702 521.778 274.137C522.248 274.841 522.688 275.563 523.09 276.308C523.808 277.613 524.414 279.15 524.166 280.547C523.719 280.993 523.305 281.468 522.929 281.968C521.153 284.297 520.144 287.034 519.216 289.753C517.968 293.234 516.97 296.79 516.227 300.397C514.717 303.413 512.873 306.301 511.778 309.474C509.817 309.479 507.865 309.234 505.974 308.746L500.751 307.629C498.932 307.244 497.038 306.819 495.615 305.695C494.86 305.113 494.272 304.339 493.505 303.756C492.737 303.174 491.196 302.505 490.355 302.982C490.201 303.07 490.058 303.173 489.928 303.291C489.161 301.829 487.279 305.556 486.388 304.176C485.114 302.19 480.64 304.49 478.226 304.117C476.753 303.895 475.245 304.223 474.025 305.032C472.614 305.981 471.729 307.943 472.787 309.27C473.05 309.569 473.337 309.848 473.647 310.103C474.365 310.877 475.005 311.711 475.559 312.595C477.465 315.175 481.852 312.898 485.182 313.492C485.107 313.69 487.515 308.781 487.44 308.985C487.001 310.19 486.067 311.658 486.302 312.915L509.532 320.398C511.021 320.968 512.603 321.295 514.21 321.364C514.836 321.358 515.459 321.282 516.066 321.137V322.255V322.296C516.128 329.976 514.829 337.609 514.587 345.284C514.544 346.681 514.587 348.195 515.528 349.29C516.58 350.489 518.449 350.722 520.076 350.454C520.464 350.395 520.849 350.316 521.227 350.215C521.778 352.145 522.175 354.111 522.415 356.096L523.956 366.437C524.154 367.502 524.235 368.583 524.197 369.663C524.018 372.097 522.65 374.286 521.66 376.54C520.67 378.793 520.082 381.483 521.382 383.591C521.79 384.243 522.353 384.802 522.718 385.477C523.182 386.521 523.394 387.649 523.337 388.779C523.432 391.923 523.523 395.063 523.61 398.2C523.339 398.163 523.063 398.217 522.83 398.351C521.543 399.289 521.685 403.784 521.592 405.176C521.493 407.505 521.592 409.88 521.456 412.233C521.282 415.412 520.726 418.563 519.798 421.625C519.575 422.618 519.087 423.541 518.381 424.309C517.655 424.899 516.793 425.32 515.862 425.537C512.779 426.444 509.555 426.855 506.326 426.754C505.021 426.719 503.659 426.597 502.446 427.069C501.234 427.54 500.256 428.816 500.695 429.98C501.073 430.958 502.217 431.424 503.251 431.791C505.609 432.564 507.888 433.539 510.058 434.702C510.893 435.237 511.773 435.708 512.688 436.111C513.566 436.408 514.474 436.619 515.398 436.74L526.369 438.487C528.616 438.854 531.32 439.069 532.749 437.322C533.523 436.379 533.634 435.098 533.597 433.905C533.535 431.575 533.04 429.2 533.362 426.877C533.606 425.498 533.992 424.145 534.513 422.836L537.793 413.828C538.894 410.759 540.008 407.668 540.435 404.454C540.59 403.289 540.577 401.967 539.63 401.234C539.39 401.051 539.112 400.916 538.814 400.838C538.777 398.031 538.387 395.225 538.554 392.418C538.597 391.714 538.671 391.015 538.733 390.316C539.308 390.828 539.821 391.398 540.262 392.016C541.32 393.571 541.71 395.632 543.325 396.674C544.699 397.554 546.734 397.513 547.7 398.794C548.009 399.284 548.242 399.814 548.393 400.366C548.953 401.741 549.794 402.999 550.868 404.069C551.238 405.347 551.75 406.584 552.396 407.761L555.119 413.176C556.045 415.121 557.078 417.02 558.213 418.865C559.077 420.027 559.774 421.292 560.286 422.626C561.159 425.508 559.736 428.664 557.483 430.778C555.231 432.891 552.26 434.114 549.333 435.25C549.024 435.346 548.741 435.505 548.504 435.715C548.251 435.998 548.116 436.359 548.127 436.729C548.127 438.074 549.302 439.221 550.651 439.64C552.031 439.983 553.475 440.032 554.878 439.785C562.786 438.883 570.67 437.06 577.662 433.45C578.706 432.981 579.632 432.308 580.379 431.476C580.752 431.052 580.993 430.538 581.074 429.992C581.156 429.446 581.076 428.89 580.843 428.385Z" fill="url(#paint0_linear)"/>
<path id="Vector_18" d="M547.421 297.829C548.742 299.731 549.979 301.684 551.134 303.687C551.94 305.008 552.596 306.405 553.09 307.856C553.808 310.185 553.789 312.671 554.327 315.052C554.946 317.847 556.394 320.514 556.394 323.373C556.3 325.855 555.387 328.248 553.783 330.22C552.182 332.176 550.351 333.956 548.325 335.525C543.653 324.134 541.042 312.087 540.602 299.884C540.54 298.19 540.528 296.449 541.184 294.871C541.586 293.887 543.517 291.174 544.761 292.239C545.212 292.629 545.33 294.382 545.608 294.97C546.133 295.966 546.739 296.922 547.421 297.829Z" fill="#2F2E41"/>
<path id="Vector_19" opacity="0.1" d="M547.421 297.829C548.742 299.731 549.979 301.684 551.134 303.687C551.94 305.008 552.596 306.405 553.09 307.856C553.808 310.185 553.789 312.671 554.327 315.052C554.946 317.847 556.394 320.514 556.394 323.373C556.3 325.855 555.387 328.248 553.783 330.22C552.182 332.176 550.351 333.956 548.325 335.525C543.653 324.134 541.042 312.087 540.602 299.884C540.54 298.19 540.528 296.449 541.184 294.871C541.586 293.887 543.517 291.174 544.761 292.239C545.212 292.629 545.33 294.382 545.608 294.97C546.133 295.966 546.739 296.922 547.421 297.829Z" fill="black"/>
<path id="Vector_20" d="M480.992 304.187C478.573 303.815 475.887 303.995 474.006 305.474C472.871 306.381 472.152 307.667 472.001 309.061C471.84 310.68 472.836 312.589 474.557 312.717C474.971 312.722 475.384 312.697 475.794 312.642C476.881 312.635 477.966 312.719 479.037 312.892C481.144 313.079 483.269 312.787 485.232 312.041C487.194 311.296 488.939 310.118 490.318 308.607C491.797 306.889 489.847 306.109 488.102 305.759C485.714 305.282 483.381 304.56 480.992 304.187Z" fill="#FBBEBE"/>
<path id="Vector_21" d="M522.378 356.766L523.913 367.025C524.108 368.082 524.187 369.156 524.148 370.228C523.969 372.644 522.601 374.816 521.617 377.052C520.633 379.288 520.033 381.961 521.339 384.039C521.741 384.686 522.304 385.239 522.669 385.908C523.132 386.946 523.344 388.068 523.288 389.192L523.709 403.749C528.485 404.058 533.28 404.034 538.053 403.679C538.24 403.685 538.424 403.63 538.572 403.522C538.698 403.373 538.762 403.187 538.752 402.998C538.962 399.592 538.331 396.179 538.535 392.773C538.61 391.527 538.795 390.281 538.82 389.035C538.894 383.964 536.233 378.997 537.038 373.978C537.291 372.713 537.622 371.463 538.028 370.234C540.571 361.529 540.033 352.323 539.47 343.31C539.48 343.163 539.436 343.017 539.346 342.896C539.253 342.812 539.137 342.754 539.012 342.727C536.304 341.965 533.441 341.827 530.664 342.325C527.888 342.823 525.279 343.941 523.059 345.586C522.384 346.099 520.683 346.588 520.237 347.199C519.618 348.055 520.429 348.899 520.788 349.808C521.583 352.067 522.116 354.399 522.378 356.766Z" fill="#3F3D56"/>
<path id="Vector_22" opacity="0.1" d="M522.378 356.766L523.913 367.025C524.108 368.082 524.187 369.156 524.148 370.228C523.969 372.644 522.601 374.816 521.617 377.052C520.633 379.288 520.033 381.961 521.339 384.039C521.741 384.686 522.304 385.239 522.669 385.908C523.132 386.946 523.344 388.068 523.288 389.192L523.709 403.749C528.485 404.058 533.28 404.034 538.053 403.679C538.24 403.685 538.424 403.63 538.572 403.522C538.698 403.373 538.762 403.187 538.752 402.998C538.962 399.592 538.331 396.179 538.535 392.773C538.61 391.527 538.795 390.281 538.82 389.035C538.894 383.964 536.233 378.997 537.038 373.978C537.291 372.713 537.622 371.463 538.028 370.234C540.571 361.529 540.033 352.323 539.47 343.31C539.48 343.163 539.436 343.017 539.346 342.896C539.253 342.812 539.137 342.754 539.012 342.727C536.304 341.965 533.441 341.827 530.664 342.325C527.888 342.823 525.279 343.941 523.059 345.586C522.384 346.099 520.683 346.588 520.237 347.199C519.618 348.055 520.429 348.899 520.788 349.808C521.583 352.067 522.116 354.399 522.378 356.766Z" fill="black"/>
<path id="Vector_23" d="M551.048 353.686C550.324 355.101 549.352 356.422 548.919 357.942C547.793 361.954 550.707 366.094 550.361 370.205C550.249 371.497 549.822 372.767 549.791 374.065C549.76 375.363 550.268 376.802 551.493 377.401C552.316 377.803 553.35 377.762 554.123 378.217C555.429 378.962 555.577 380.674 555.447 382.1C555.317 383.527 555.101 385.134 556.066 386.258C556.802 387.125 558.065 387.457 558.857 388.278C559.328 388.87 559.729 389.508 560.051 390.182C561.233 392.121 563.393 393.315 565.163 394.805C566.932 396.296 568.43 398.573 567.638 400.68C567.056 402.235 565.422 403.184 563.851 403.918C560.983 405.25 557.956 406.254 554.835 406.911C554.5 407.009 554.145 407.027 553.801 406.963C553.453 406.843 553.142 406.643 552.898 406.381C551.072 404.704 549.185 402.94 548.343 400.669C548.193 400.12 547.959 399.595 547.65 399.108C546.685 397.839 544.649 397.88 543.275 397.006C541.666 395.976 541.277 393.926 540.225 392.383C539.173 390.84 537.632 389.926 536.512 388.563C534.618 386.304 534.154 383.288 532.799 380.709C532.151 379.65 531.561 378.562 531.029 377.448C530.566 376.08 530.281 374.665 530.181 373.232C529.309 366.437 527.087 359.584 528.486 352.853C528.795 351.368 529.272 349.942 529.47 348.416C529.81 345.773 529.272 343.077 529.686 340.439C529.696 340.109 529.785 339.786 529.946 339.493C530.108 339.201 530.339 338.947 530.621 338.751C530.955 338.607 531.318 338.536 531.685 338.541C535.354 338.359 539.031 338.437 542.687 338.774C544.544 338.949 546.623 339.304 547.737 340.724C548.684 341.947 548.634 343.589 548.937 345.074C549.315 346.896 550.299 347.898 551.332 349.33C552.366 350.763 551.833 352.207 551.048 353.686Z" fill="#3F3D56"/>
<path id="Vector_24" d="M536.815 401.018C537.793 401.018 538.876 400.96 539.631 401.548C540.571 402.27 540.583 403.603 540.435 404.739C540.002 407.93 538.894 410.998 537.786 414.055L534.494 423.138C533.974 424.438 533.589 425.781 533.343 427.15C533.022 429.479 533.517 431.808 533.579 434.137C533.579 435.302 533.498 436.595 532.725 437.526C531.326 439.221 528.597 439.023 526.351 438.691L515.392 436.944C514.467 436.826 513.558 436.615 512.681 436.315C511.764 435.922 510.885 435.457 510.052 434.923C507.883 433.757 505.604 432.783 503.245 432.012C502.217 431.645 501.066 431.185 500.695 430.213C500.256 429.048 501.234 427.773 502.446 427.302C503.659 426.83 505.014 426.952 506.326 426.993C509.553 427.091 512.774 426.679 515.856 425.776C516.783 425.561 517.644 425.144 518.368 424.559C519.075 423.801 519.563 422.885 519.785 421.898C520.719 418.863 521.275 415.737 521.444 412.582C521.574 410.253 521.487 407.924 521.586 405.595C521.648 404.209 521.506 399.772 522.793 398.823C523.777 398.113 527.824 400.069 529.154 400.36C531.669 400.878 534.242 401.099 536.815 401.018Z" fill="#2F2E41"/>
<path id="Vector_25" d="M572.898 407.475C573.968 410.818 574.135 414.34 574.828 417.77C575.521 421.199 576.747 424.705 579.451 427.086C579.978 427.478 580.432 427.95 580.794 428.484C581.022 428.982 581.099 429.53 581.017 430.068C580.936 430.605 580.697 431.111 580.329 431.529C579.58 432.354 578.655 433.02 577.613 433.485C570.627 437.078 562.762 438.883 554.835 439.779C553.435 440.031 551.992 439.984 550.614 439.64C549.265 439.209 548.071 438.068 548.096 436.728C548.083 436.363 548.215 436.006 548.467 435.727C548.706 435.516 548.991 435.357 549.302 435.261C552.223 434.137 555.187 432.932 557.446 430.824C559.705 428.716 561.122 425.584 560.249 422.754C559.739 421.428 559.042 420.173 558.176 419.022C557.045 417.189 556.012 415.304 555.082 413.374L552.359 407.999C551.561 406.427 550.757 404.809 550.621 403.073C554.041 403.221 557.457 402.705 560.658 401.56C562.153 400.989 563.545 400.203 564.785 399.231C565.837 398.404 566.796 396.861 568.213 397.944C569.352 398.805 570.07 401.228 570.738 402.462C571.601 404.075 572.323 405.752 572.898 407.475Z" fill="#2F2E41"/>
<path id="Vector_26" d="M532.997 274.032C533.269 276.262 535.571 277.741 537.768 278.62L523.863 282.818C524.761 281.199 524.037 279.226 523.145 277.578C522.421 276.279 521.594 275.033 520.67 273.851C520.534 273.665 520.379 273.438 520.478 273.234C520.567 273.097 520.706 272.996 520.868 272.949C523.727 271.749 526.673 270.509 529.798 270.072C530.701 269.944 532.409 269.607 533.084 270.468C533.758 271.33 532.867 273.001 532.997 274.032Z" fill="#FBBEBE"/>
<path id="Vector_27" opacity="0.1" d="M532.997 274.032C533.269 276.262 535.571 277.741 537.768 278.62L523.863 282.818C524.761 281.199 524.037 279.226 523.145 277.578C522.421 276.279 521.594 275.033 520.67 273.851C520.534 273.665 520.379 273.438 520.478 273.234C520.567 273.097 520.706 272.996 520.868 272.949C523.727 271.749 526.673 270.509 529.798 270.072C530.701 269.944 532.409 269.607 533.084 270.468C533.758 271.33 532.867 273.001 532.997 274.032Z" fill="black"/>
<path id="Vector_28" d="M524.915 275.843C530.937 275.843 535.819 271.249 535.819 265.583C535.819 259.917 530.937 255.324 524.915 255.324C518.894 255.324 514.012 259.917 514.012 265.583C514.012 271.249 518.894 275.843 524.915 275.843Z" fill="#FBBEBE"/>
<path id="Vector_29" d="M515.491 350.012C516.549 351.176 518.412 351.432 520.039 351.176C523.845 350.594 526.957 347.956 530.682 347.001C535.249 345.837 540.082 347.339 544.395 349.167C548.708 350.996 552.997 353.214 557.712 353.563C553.448 344.62 555.886 333.854 551.809 324.834C550.812 322.628 549.42 320.502 549.197 318.115C548.919 315.151 550.49 312.292 550.732 309.346C550.955 306.72 550.113 304.106 549.309 301.608C548.314 298.534 547.32 295.457 546.326 292.379C545.212 288.938 544.067 285.444 541.908 282.48C541.109 281.392 540.868 279.191 539.655 278.527C537.007 277.089 532.991 278.905 530.119 279.004C527.248 279.103 524.631 281.025 522.954 283.191C521.178 285.52 520.169 288.222 519.241 290.923C517.762 294.946 516.658 299.082 515.943 303.285C515.85 303.914 515.769 304.543 515.707 305.177C515.089 311.157 515.992 317.172 516.042 323.175V323.216C516.103 330.838 514.804 338.413 514.563 346.029C514.538 347.45 514.538 348.946 515.491 350.012Z" fill="#2F2E41"/>
<path id="Vector_30" opacity="0.1" d="M516.035 323.181C518.17 322.674 520.101 321.376 521.759 319.961C523.192 318.759 524.468 317.4 525.559 315.914C526.931 313.881 528.03 311.697 528.832 309.41C531.125 303.347 532.58 297.032 533.164 290.621C533.325 288.874 533.374 287.005 532.267 285.619C531.646 284.867 530.773 284.335 529.789 284.11C528.806 283.885 527.771 283.98 526.852 284.379C525.392 285.054 524.445 286.411 523.566 287.703C521.828 290.283 520.076 292.886 518.956 295.75C518.461 297.02 518.096 298.33 517.613 299.605C517.121 300.862 516.555 302.093 515.918 303.291C515.825 303.919 515.745 304.548 515.683 305.183C515.107 311.163 515.986 317.172 516.035 323.181Z" fill="black"/>
<path id="Vector_31" d="M532.236 284.513C533.343 285.898 533.294 287.791 533.139 289.514C532.555 295.928 531.099 302.245 528.808 308.31C528.009 310.596 526.91 312.779 525.534 314.808C524.445 316.295 523.169 317.654 521.735 318.855C519.631 320.665 517.069 322.273 514.216 322.302C512.611 322.228 511.03 321.903 509.538 321.341L486.326 313.917C486.091 312.671 487.026 311.221 487.465 310.022L488.703 306.563C489.055 305.608 489.464 304.583 490.386 304.065C491.308 303.547 492.768 304.257 493.536 304.828C494.303 305.398 494.885 306.167 495.639 306.755C497.069 307.873 498.956 308.287 500.776 308.671L505.992 309.777C507.884 310.26 509.836 310.503 511.797 310.499C513.251 306.324 516.017 302.639 517.582 298.499C518.065 297.223 518.43 295.913 518.931 294.65C520.045 291.779 521.803 289.177 523.541 286.603C524.414 285.304 525.361 283.948 526.827 283.278C527.744 282.877 528.779 282.78 529.761 283.005C530.744 283.229 531.616 283.761 532.236 284.513Z" fill="#2F2E41"/>
<path id="Vector_32" d="M528.393 267.895C528.309 267.22 528.086 266.568 527.737 265.973C527.553 265.677 527.275 265.443 526.942 265.305C526.608 265.167 526.237 265.132 525.881 265.205C524.792 265.525 524.427 267.114 523.288 267.167C522.521 267.202 521.97 266.468 521.729 265.775C521.487 265.082 521.357 264.308 520.782 263.819C520.381 263.537 519.921 263.338 519.433 263.237C516.79 262.451 514.062 260.995 513.183 258.52C512.976 258.018 512.926 257.47 513.04 256.942C513.443 255.376 515.516 254.91 517.094 254.34C518.672 253.769 520.188 252.808 521.735 252.08C523.282 251.353 525.076 250.823 526.778 251.195C527.642 251.453 528.49 251.752 529.321 252.092C531.883 252.925 535.02 252.535 537.007 254.275C537.874 255.142 538.51 256.19 538.863 257.332C540.249 260.948 541.128 265.245 538.832 268.43C537.415 270.393 536.042 272.634 533.319 272.867C530.15 273.129 528.894 270.41 528.393 267.895Z" fill="#2F2E41"/>
<g id="Group_2" opacity="0.1">
<path id="Vector_33" opacity="0.1" d="M523.554 264.541C523.313 263.854 523.183 263.074 522.613 262.584C522.213 262.302 521.753 262.104 521.264 262.002C518.616 261.216 515.893 259.76 515.008 257.286C514.806 256.782 514.759 256.235 514.872 255.708C514.935 255.46 515.046 255.225 515.2 255.015C514.191 255.428 513.313 255.976 513.065 256.942C512.951 257.47 513 258.018 513.207 258.52C514.086 260.995 516.815 262.451 519.457 263.237C519.946 263.338 520.406 263.537 520.806 263.819C521.382 264.308 521.506 265.088 521.753 265.775C522.001 266.462 522.545 267.202 523.313 267.167C524.08 267.132 524.451 266.474 524.94 265.915C524.266 265.839 523.777 265.176 523.554 264.541Z" fill="black"/>
<path id="Vector_34" opacity="0.1" d="M535.138 271.621C531.957 271.895 530.701 269.176 530.188 266.66C530.12 265.989 529.909 265.338 529.569 264.745C529.385 264.448 529.107 264.214 528.774 264.075C528.44 263.936 528.069 263.899 527.712 263.97C527.124 264.145 526.747 264.692 526.345 265.135C526.628 265.16 526.902 265.246 527.144 265.386C527.387 265.526 527.592 265.717 527.743 265.944C528.092 266.539 528.315 267.191 528.399 267.866C528.9 270.381 530.157 273.106 533.35 272.826C534.612 272.7 535.777 272.133 536.617 271.237C536.15 271.442 535.65 271.572 535.138 271.621Z" fill="black"/>
</g>
<path id="Vector_35" d="M157.109 222.88C128.904 218.222 96.1132 219.037 60.7607 222.88C67.9327 184.613 68.2669 147.127 60.7607 110.543H157.109C164.225 147.689 164.225 185.734 157.109 222.88Z" fill="#F2F2F2"/>
<path id="Vector_36" d="M128.365 104.138H94.8506V114.485H128.365V104.138Z" fill="#3F3D56"/>
<path id="Vector_37" d="M299.503 252.371H240.097V259.941H299.503V252.371Z" fill="#004AB8"/>
<path id="Vector_38" d="M299.503 268.093H240.097V275.662H299.503V268.093Z" fill="#004AB8"/>
<path id="Vector_39" d="M378.71 25.2878H319.304V32.8573H378.71V25.2878Z" fill="#004AB8"/>
<path id="Vector_40" d="M378.71 41.009H319.304V48.5784H378.71V41.009Z" fill="#004AB8"/>
<path id="Vector_41" d="M141.088 131.26H81.6826V138.83H141.088V131.26Z" fill="#004AB8"/>
<path id="Vector_42" d="M78.9351 419.994L90.7791 413.444C89.1773 410.869 87.1298 408.565 84.7209 406.625L62.3758 413.164L79.8881 403.475C75.553 401.241 70.6743 400.107 65.7322 400.185C60.79 400.264 55.9548 401.552 51.7023 403.923C47.4499 406.294 43.9268 409.666 41.4799 413.707C39.033 417.748 37.7466 422.319 37.7473 426.97C37.7473 441.765 50.4885 442.277 66.2124 442.277C81.9363 442.277 94.6775 441.765 94.6775 426.97C94.6831 423.227 93.8502 419.524 92.2333 416.105L78.9351 419.994Z" fill="#004AB8"/>
<path id="Vector_43" opacity="0.1" d="M81.9485 434.376C80.6879 433.186 79.2792 432.144 77.753 431.273C75.5995 429.928 73.378 428.559 70.8409 428.099C68.6132 427.703 66.3174 428.041 64.034 427.919C60.0957 427.69 56.3884 426.092 53.6319 423.435C52.0168 421.857 50.742 419.942 48.799 418.725C46.7012 417.426 44.0404 417.147 41.5528 417.473C40.8308 417.57 40.1158 417.708 39.4117 417.886C38.2944 420.799 37.7248 423.873 37.7285 426.97C37.7285 441.765 50.4698 442.277 66.1936 442.277C73.8235 442.277 80.748 442.155 85.8593 440.339L85.0239 438.865C84.2071 437.251 83.1735 435.743 81.9485 434.376Z" fill="black"/>
<path id="Vector_44" d="M369.886 398.631L354.174 389.955C356.303 386.542 359.022 383.485 362.219 380.912L391.853 389.582L368.629 376.738C374.378 373.774 380.848 372.27 387.402 372.374C393.957 372.478 400.369 374.186 406.008 377.33C411.648 380.474 416.32 384.946 419.565 390.305C422.81 395.665 424.515 401.727 424.514 407.895C424.514 427.511 407.614 428.187 386.767 428.187C365.919 428.187 349.019 427.511 349.019 407.895C349.003 402.92 350.101 397.997 352.243 393.449L369.886 398.631Z" fill="#004AB8"/>
<path id="Vector_45" opacity="0.1" d="M365.882 417.7C367.56 416.126 369.429 414.745 371.451 413.583C374.304 411.808 377.256 409.985 380.616 409.379C383.567 408.85 386.612 409.298 389.613 409.135C394.839 408.838 399.759 406.718 403.413 403.19C405.554 401.1 407.243 398.532 409.823 396.942C412.602 395.195 416.129 394.858 419.427 395.283C420.386 395.416 421.336 395.599 422.274 395.83C423.753 399.696 424.507 403.774 424.502 407.883C424.502 427.5 407.602 428.175 386.754 428.175C376.637 428.175 367.454 428.018 360.672 425.613L361.804 423.622C362.892 421.494 364.263 419.504 365.882 417.7Z" fill="black"/>
</g>
<defs>
<linearGradient id="paint0_linear" x1="529.831" y1="440.764" x2="522.578" y2="249.679" gradientUnits="userSpaceOnUse">
<stop stop-color="#808080" stop-opacity="0.25"/>
<stop offset="0.54" stop-color="#808080" stop-opacity="0.12"/>
<stop offset="1" stop-color="#808080" stop-opacity="0.1"/>
</linearGradient>
</defs>
</svg>
