<svg width="102" height="44" viewBox="0 0 102 44" fill="none" xmlns="http://www.w3.org/2000/svg">
<g id="Group 2">
<path id="Vector" d="M28.3493 0.451569V15.6451C28.0086 15.6451 27.6679 15.5968 27.3759 15.5968C19.151 15.5968 12.4835 22.2258 12.4835 30.4032C12.4835 30.9355 12.5322 31.5161 12.5808 32.0484H4.79392C4.11256 32.0484 3.57721 31.5161 3.57721 30.7903V28.8065H4.79392C5.86462 28.8065 6.78931 28.0323 6.78931 27.0645C6.78931 26.0968 5.91329 25.3226 4.79392 25.3226H3.57721V23.3387H4.79392C5.86462 23.3387 6.78931 22.5645 6.78931 21.5968C6.78931 20.629 5.91329 19.8548 4.79392 19.8548H3.57721V17.871H4.79392C5.86462 17.871 6.78931 17.0968 6.78931 16.129C6.78931 15.1613 5.91329 14.3871 4.79392 14.3871H3.57721V12.5484H4.79392C5.86462 12.5484 6.78931 11.7742 6.78931 10.8064C6.78931 9.83868 5.91329 9.06449 4.79392 9.06449H3.57721V7.08061H4.79392C5.86462 7.08061 6.78931 6.30642 6.78931 5.33867C6.78931 4.37093 5.91329 3.59674 4.79392 3.59674H3.57721V1.66125C3.57721 0.983828 4.11256 0.451569 4.79392 0.451569H28.3493ZM4.74525 26.0968H3.52855H2.26317C1.58182 26.0968 0.997803 26.5323 0.997803 27.0645C0.997803 27.5968 1.53315 28.0323 2.26317 28.0323H3.52855H4.74525C5.4266 28.0323 5.96195 27.5968 5.96195 27.0645C5.96195 26.5807 5.4266 26.0968 4.74525 26.0968ZM4.74525 20.6774H3.52855H2.26317C1.58182 20.6774 0.997803 21.1129 0.997803 21.6452C0.997803 22.1774 1.53315 22.6129 2.26317 22.6129H3.52855H4.74525C5.4266 22.6129 5.96195 22.1774 5.96195 21.6452C5.96195 21.1129 5.4266 20.6774 4.74525 20.6774ZM4.74525 15.258H3.52855H2.26317C1.58182 15.258 0.997803 15.6935 0.997803 16.2258C0.997803 16.7581 1.53315 17.1935 2.26317 17.1935H3.52855H4.74525C5.4266 17.1935 5.96195 16.7581 5.96195 16.2258C5.96195 15.6935 5.4266 15.258 4.74525 15.258ZM4.74525 9.83868H3.52855H2.26317C1.58182 9.83868 0.997803 10.2742 0.997803 10.8064C0.997803 11.3387 1.53315 11.7742 2.26317 11.7742H3.52855H4.74525C5.4266 11.7742 5.96195 11.3387 5.96195 10.8064C5.96195 10.2742 5.4266 9.83868 4.74525 9.83868ZM2.26317 6.35481H3.52855H4.74525C5.4266 6.35481 5.96195 5.91932 5.96195 5.38706C5.96195 4.8548 5.4266 4.41932 4.74525 4.41932H3.52855H2.26317C1.58182 4.41932 0.997803 4.8548 0.997803 5.38706C0.997803 5.91932 1.58182 6.35481 2.26317 6.35481ZM41.003 30.4516C41.003 22.9516 34.8708 16.9032 27.3759 16.9032C19.8324 16.9032 13.7489 23 13.7489 30.4516C13.7489 37.9033 19.881 44 27.3759 44C34.8708 44 41.003 37.9033 41.003 30.4516ZM38.5209 30.4516C38.5209 36.5968 33.5081 41.5323 27.3273 41.5323C21.1464 41.5323 16.1823 36.5484 16.1823 30.4516C16.1823 24.3548 21.1951 19.3226 27.3273 19.3226C33.4594 19.3226 38.5209 24.3065 38.5209 30.4516ZM29.566 32.629C29.8093 32.3871 29.9067 32.0968 29.9067 31.7581V21.6935C29.9067 21.0161 29.3713 20.4355 28.69 20.4355C28.0086 20.4355 27.4246 20.9677 27.4733 21.6935V30.5H22.4605C21.7791 30.5 21.2437 31.0323 21.2437 31.7097C21.2437 32.3871 21.7791 32.9194 22.4605 32.9194H28.69C28.982 32.9678 29.3227 32.871 29.566 32.629Z" fill="#004AB8"/>
<path id="CSA" d="M59.2123 31.7477C57.4069 31.7477 55.8291 31.3817 54.479 30.6497C53.1453 29.9015 52.1124 28.8524 51.3804 27.5023C50.6648 26.1523 50.3069 24.5908 50.3069 22.8178C50.3069 21.0611 50.6648 19.5159 51.3804 18.1821C52.1124 16.8321 53.1453 15.7911 54.479 15.0591C55.8291 14.3109 57.4069 13.9368 59.2123 13.9368C60.3509 13.9368 61.4489 14.1076 62.5061 14.4492C63.5797 14.7907 64.4417 15.2543 65.0924 15.8399L63.7017 19.0849C62.2865 18.0601 60.8226 17.5478 59.3099 17.5478C57.9111 17.5478 56.8376 17.9951 56.0893 18.8897C55.3411 19.768 54.967 21.0774 54.967 22.8178C54.967 24.5745 55.3411 25.9002 56.0893 26.7948C56.8376 27.6894 57.9111 28.1367 59.3099 28.1367C60.8226 28.1367 62.2865 27.6243 63.7017 26.5996L65.0924 29.8446C64.4417 30.4301 63.5797 30.8937 62.5061 31.2353C61.4489 31.5769 60.3509 31.7477 59.2123 31.7477ZM73.3865 31.7477C72.0853 31.7477 70.8003 31.5769 69.5315 31.2353C68.2628 30.8937 67.23 30.4301 66.4329 29.8446L67.8725 26.5996C68.7183 27.1364 69.6129 27.5511 70.5563 27.8439C71.516 28.1204 72.4756 28.2587 73.4353 28.2587C74.4112 28.2587 75.1595 28.1286 75.68 27.8683C76.2005 27.5918 76.4607 27.2096 76.4607 26.7216C76.4607 26.2824 76.2249 25.9246 75.7532 25.6481C75.2814 25.3553 74.395 25.0706 73.0937 24.7941C71.4509 24.4688 70.174 24.0703 69.2632 23.5986C68.3523 23.1106 67.7098 22.5413 67.3357 21.8907C66.9778 21.2401 66.7989 20.4512 66.7989 19.524C66.7989 18.4668 67.0998 17.5152 67.7017 16.6694C68.3035 15.8073 69.1493 15.1405 70.2391 14.6688C71.3289 14.1808 72.5732 13.9368 73.9721 13.9368C75.2245 13.9368 76.4363 14.1157 77.6074 14.4736C78.7948 14.8151 79.722 15.2706 80.3889 15.8399L78.9737 19.0849C78.2093 18.5481 77.4041 18.1415 76.5583 17.865C75.7125 17.5722 74.8667 17.4258 74.0209 17.4258C73.1913 17.4258 72.5244 17.5884 72.0202 17.9137C71.516 18.2228 71.2638 18.6457 71.2638 19.1825C71.2638 19.4752 71.3533 19.7192 71.5322 19.9144C71.7111 20.1096 72.0446 20.3048 72.5326 20.5C73.0205 20.6789 73.7525 20.8741 74.7284 21.0855C76.3062 21.4271 77.5424 21.8419 78.437 22.3299C79.3479 22.8016 79.9903 23.3627 80.3645 24.0134C80.7386 24.6477 80.9256 25.4122 80.9256 26.3068C80.9256 27.9984 80.2669 29.3322 78.9493 30.3082C77.6318 31.2678 75.7775 31.7477 73.3865 31.7477ZM94.9097 27.9415H87.1998L85.6627 31.5281H81.0758L89.2005 14.1564H92.8115L100.961 31.5281H96.4468L94.9097 27.9415ZM93.4214 24.5013L91.0548 19.0117L88.6881 24.5013H93.4214Z" fill="#004AB8"/>
</g>
</svg>
