<svg width="38" height="55" viewBox="0 0 38 55" fill="none" xmlns="http://www.w3.org/2000/svg">
<g id="Track icon">
<path id="Vector" d="M28.6856 39.2692C28.1073 40.4258 27.4133 41.5825 26.7771 42.7392C31.2881 43.7224 33.8906 45.4574 33.8906 46.4984C33.8906 48.1177 28.1651 51.1251 18.8538 51.1251C9.54259 51.1251 3.81704 48.1756 3.81704 46.4984C3.81704 45.3996 6.41956 43.7224 10.9306 42.7392C10.2366 41.5247 9.60042 40.368 9.02208 39.2692C3.81704 40.5993 0 43.0284 0 46.5562C0 52.1083 9.48475 55 18.8538 55C28.2229 55 37.7077 52.1083 37.7077 46.5562C37.7077 43.0284 33.8906 40.5415 28.6856 39.2692Z" fill="#004AB8"/>
<path id="Vector_2" d="M21.9767 44.0116C26.5456 36.1462 34.411 21.6299 34.411 15.5573C34.411 6.9979 27.4709 0 18.8537 0C10.2943 0 3.29639 6.94006 3.29639 15.5573C3.29639 21.6877 11.1618 36.1462 15.6728 44.0116C17.1187 46.4406 20.5887 46.4406 21.9767 44.0116ZM10.757 15.5573C10.757 11.1041 14.4005 7.46057 18.8537 7.46057C23.3069 7.46057 26.9504 11.1041 26.9504 15.5573C26.9504 20.0105 23.3069 23.6541 18.8537 23.6541C14.4005 23.6541 10.757 20.0105 10.757 15.5573Z" fill="#004AB8"/>
</g>
</svg>
