<svg width="44" height="54" viewBox="0 0 44 54" fill="none" xmlns="http://www.w3.org/2000/svg">
<path fill-rule="evenodd" clip-rule="evenodd" d="M3.5 3.49998H31.6084V10.5143C31.6084 11.3427 32.28 12.0143 33.1084 12.0143H40.1227V50.025H3.5V3.49998ZM34.6084 5.6213L38.0014 9.01426H34.6084V5.6213ZM43.1227 51.525V10.522C43.1228 10.4939 43.1222 10.4659 43.1208 10.4379C43.104 10.1106 42.9803 9.79234 42.7602 9.53649C42.7358 9.50807 42.7101 9.48041 42.6833 9.4536L34.1691 0.939323C34.1104 0.880645 34.0477 0.827592 33.9817 0.780317C33.8667 0.697981 33.7418 0.633172 33.6111 0.586699C33.4665 0.535285 33.3146 0.506313 33.1611 0.500878C33.1397 0.500118 33.1181 0.499818 33.0966 0.499983H2C1.17157 0.499983 0.5 1.17156 0.5 1.99998V51.525C0.5 52.3534 1.17157 53.025 2 53.025H41.6227C42.4511 53.025 43.1227 52.3534 43.1227 51.525ZM12.2853 27.2569H7.72778V28.8443H12.2853V33.8486H13.954V28.8443H18.4912V27.2569H13.954V22.2514H12.2853V27.2569ZM25.3687 18.7119H27.1188L21.9302 34.7033H20.1802L25.3687 18.7119ZM35.787 27.1756H29.8455V28.9257H35.787V27.1756Z" fill="#004AB8"/>
</svg>
