<svg width="68" height="61" viewBox="0 0 68 61" fill="none" xmlns="http://www.w3.org/2000/svg">
<path id="Vector" d="M26.4444 0H3.77778C2.77585 0 1.81496 0.401674 1.10649 1.11666C0.398015 1.83164 0 2.80136 0 3.8125V57.1875C0 58.1986 0.398015 59.1684 1.10649 59.8833C1.81496 60.5983 2.77585 61 3.77778 61H41.5556C42.5575 61 43.5184 60.5983 44.2268 59.8833C44.9353 59.1684 45.3333 58.1986 45.3333 57.1875V19.0625L26.4444 0ZM26.4444 5.39156L39.9909 19.0625H26.4444V5.39156ZM41.5556 57.1875H3.77778V3.8125H22.6667V22.875H41.5556V57.1875ZM60.4444 0C58.4406 0 56.5188 0.803346 55.1019 2.23331C53.6849 3.66328 52.8889 5.60272 52.8889 7.625V53.375L60.4444 61L68 53.375V7.625C68 5.60272 67.204 3.66328 65.787 2.23331C64.3701 0.803346 62.4483 0 60.4444 0ZM64.2222 51.7957L60.4444 55.6082L56.6667 51.7957V15.25H64.2222V51.7957ZM64.2222 11.4375H56.6667V7.625C56.6667 6.61386 57.0647 5.64414 57.7731 4.92916C58.4816 4.21417 59.4425 3.8125 60.4444 3.8125C61.4464 3.8125 62.4073 4.21417 63.1157 4.92916C63.8242 5.64414 64.2222 6.61386 64.2222 7.625V11.4375Z" fill="#004AB8"/>
</svg>
